<svg width="327" height="114" viewBox="0 0 327 114" fill="none" xmlns="http://www.w3.org/2000/svg">
<g id="Biceps branchii outline">
<path d="M55.0577 31.7082C55.4634 25.2773 57.7736 21.0515 55.0577 15.2082C53.02 10.8241 50.7289 8.65215 46.5577 6.20819C43.0398 4.14705 40.6119 3.64001 36.5577 3.20819C26.2825 4.55944 18.083 13.5892 11.0576 21.2082C9.46375 22.9368 8.39244 23.7725 7.05765 25.7082C2.96977 31.6363 3.05765 43.7082 3.05765 43.7082C3.05765 43.7082 1.27807 55.2505 1.05765 62.7082C0.971116 65.6358 0.991098 67.28 1.05765 70.2082C1.42094 86.1929 7.05765 113.208 7.05765 113.208H15.0577C15.0577 113.208 38.6876 95.435 44.5577 78.7082C46.9925 71.7702 48.7287 67.44 50.0577 60.2082C52.0999 49.0944 54.3461 42.9857 55.0577 31.7082Z" stroke="#9B2B2B"/>
<path d="M271.5 29.5C271.094 23.0691 268.784 18.8433 271.5 13C273.538 8.61594 275.829 6.44396 280 4C283.518 1.93886 285.946 1.43181 290 1C300.275 2.35125 308.475 11.381 315.5 19C317.094 20.7286 318.165 21.5643 319.5 23.5C323.588 29.4281 323.5 41.5 323.5 41.5C323.5 41.5 325.28 53.0423 325.5 60.5C325.587 63.4277 325.567 65.0718 325.5 68C325.137 83.9847 319.5 111 319.5 111H311.5C311.5 111 287.87 93.2268 282 76.5C279.565 69.562 277.829 65.2318 276.5 58C274.458 46.8862 272.212 40.7775 271.5 29.5Z" stroke="#9B2B2B"/>
</g>
</svg>
