<svg width="225" height="114" viewBox="0 0 225 114" fill="none" xmlns="http://www.w3.org/2000/svg">
<g id="External Oblique outline">
<path d="M222.878 28.0162C222.348 20.9391 221.414 17.0371 220.378 10.0162C219.342 2.99531 210.569 -0.365801 207.378 1.5162C204.187 3.3982 200.473 4.11853 196.878 5.0162C193.608 5.83292 191.809 6.72986 188.693 8.0162C185.083 9.50651 183.584 13.3903 180.693 16.0162C174.594 21.5572 171.193 26.5162 168.193 49.5162C165.193 72.5162 146.44 110.212 178.378 112.516C180.715 112.685 182.042 112.691 184.378 112.516C189.384 112.141 196.878 109.516 196.878 109.516C196.878 109.516 200.006 106.756 201.378 104.516C203.979 100.271 202.534 96.8094 203.878 92.0162C204.996 88.0324 205.916 85.8866 207.378 82.0162C210.623 73.4296 212.718 68.6986 216.878 60.5162C219.096 56.1544 221.354 54.166 222.878 49.5162C225.494 41.5377 223.506 36.389 222.878 28.0162Z" stroke="#8A2626"/>
<path d="M2.31486 28C2.84521 20.9229 3.77887 17.0209 4.81486 9.99997C5.85085 2.97908 14.6236 -0.382036 17.8149 1.49997C21.0061 3.38197 24.7204 4.10229 28.3149 4.99997C31.5852 5.81669 33.3843 6.71363 36.5 7.99997C40.1097 9.49028 41.6094 13.374 44.5 16C50.5993 21.541 54 26.5 57 49.5C60 72.5 78.753 110.196 46.8149 112.5C44.4778 112.669 43.1515 112.675 40.8149 112.5C35.8087 112.125 28.3149 109.5 28.3149 109.5C28.3149 109.5 25.1873 106.74 23.8149 104.5C21.2141 100.255 22.6593 96.7932 21.3149 92C20.1974 88.0162 19.2776 85.8703 17.8149 82C14.5697 73.4133 12.4753 68.6824 8.31486 60.5C6.09705 56.1382 3.83918 54.1497 2.31486 49.5C-0.300705 41.5215 1.68741 36.3728 2.31486 28Z" stroke="#8A2626"/>
</g>
</svg>
