<svg width="200" height="203" viewBox="0 0 200 203" fill="none" xmlns="http://www.w3.org/2000/svg">
<g id="Fibularis Longus outline">
<path d="M198.192 41.2431C198.192 41.2431 195.42 20.9179 190.015 9.45661C189.178 7.6817 189.1 6.32359 187.744 4.98663C186.446 3.70769 181.5 10.5 181.5 10.5V57.5L168.663 110.776C168.663 110.776 147.865 227.956 159.577 196.699C160.514 194.199 161.053 192.8 161.849 190.242C164.469 181.815 164.178 176.583 165.937 167.892C174.619 125.014 196.375 70.5463 198.192 61.1097C200.01 51.673 198.192 41.2431 198.192 41.2431Z" stroke="#8A2626"/>
<path d="M2.00001 40C2.00001 40 5.05097 19.5383 11 8C11.9213 6.21317 12.0067 4.84594 13.5 3.5C14.9285 2.21247 18 1.5 18 1.5L34.5 110C34.5 110 57.3905 227.967 44.5 196.5C43.469 193.983 42.8754 192.575 42 190C39.1156 181.516 39.4367 176.249 37.5 167.5C27.9444 124.334 4.00002 69.5 2.00001 60C-2.26498e-06 50.5 2.00001 40 2.00001 40Z" stroke="#8A2626"/>
</g>
</svg>
