<svg width="253" height="106" viewBox="0 0 253 106" fill="none" xmlns="http://www.w3.org/2000/svg">
<g id="Pectoralis Major outline">
<path d="M213 14.5876C216.667 19.2543 229.6 37.5876 252 73.5876L245 80.5876L227 92.5876C227 92.5876 208.606 103.354 195.5 104.588C185.324 105.545 169.5 101.588 169.5 101.588C169.5 101.588 154.161 102.066 146 97.5876C143.055 95.9714 139 92.5876 139 92.5876V41.0876C139 41.0876 143.887 37.6617 146 34.5876C148.034 31.6295 148.158 29.4173 149.5 26.0876C151.303 21.6146 151.28 18.57 154 14.5876C159.617 6.36431 176.5 2.58762 176.5 2.58762C176.5 2.58762 191.259 -0.984528 199.5 2.58762C205.972 5.39291 209.333 9.92096 213 14.5876Z" stroke="#8A2626"/>
<path d="M40.5 14.5C36.8333 19.1666 23.9 37.5 1.5 73.5L8.5 80.5L26.5 92.5C26.5 92.5 44.894 103.266 58 104.5C68.176 105.458 84 101.5 84 101.5C84 101.5 99.3388 101.979 107.5 97.5C110.445 95.8838 114.5 92.5 114.5 92.5V41C114.5 41 109.613 37.574 107.5 34.5C105.466 31.5418 105.342 29.3296 104 26C102.197 21.5269 102.22 18.4823 99.5 14.5C93.8834 6.27666 77 2.49998 77 2.49998C77 2.49998 62.2412 -1.07217 54 2.49998C47.528 5.30526 44.1667 9.83331 40.5 14.5Z" stroke="#8A2626"/>
</g>
</svg>
