<svg width="96" height="201" viewBox="0 0 96 201" fill="none" xmlns="http://www.w3.org/2000/svg">
<path id="Rectus Abdominis outline" d="M21.0003 6.49989C13.544 5.85788 4.00067 -4.50016 2.00033 8.9999C1.07288e-06 22.5 2.00033 82.4999 2.00033 82.4999C2.00033 82.4999 2.00021 150 14.0003 185.5C42.5028 211.562 81 196 87.0004 183.5C93.0008 171 93.6206 126.316 95.0004 89.4999C96.09 60.4262 95.0004 41.5 95.0004 14.9999C95.0004 -11.5002 87.0004 6.49989 76.0004 11.4999C65.0004 16.4999 49.0003 14.9999 49.0003 14.9999C49.0003 14.9999 42.3078 12.8294 38.0003 11.4999C31.388 9.459 27.8949 7.09354 21.0003 6.49989Z" stroke="#AE3030"/>
</svg>
