<svg width="186" height="224" viewBox="0 0 186 224" fill="none" xmlns="http://www.w3.org/2000/svg">
<path id="Rectus Femoris outline" d="M38.9342 214.419C38.0889 209.14 36.4411 199.126 35 192C27.5817 155.316 6.5 100.5 6.5 100.5C6.5 100.5 0.148267 84.4444 1.5 74C1.85883 71.2274 2.43636 69.7383 3 67C8.27833 41.3564 11.5 0.5 11.5 0.5C11.5 0.5 16.4152 20.1778 20.5 32.5C22.8517 39.5941 23.7747 43.758 27 50.5C30.7872 58.4167 39 69.5 39 69.5L50 90C50 90 55.7482 99.9303 57 107C58.0213 112.768 57.3867 116.155 57 122C56.3451 131.898 52.5 147 52.5 147C52.5 147 50.3719 165.25 50 177C49.7714 184.221 49.4586 188.296 50 195.5C50.5186 202.401 52.5034 211.839 53.6565 216.917M38.9342 214.419C39.287 216.622 39.5 218 39.5 218C39.5 218 38.9809 216.254 38.9342 214.419ZM38.9342 214.419C38.9076 213.372 39.0347 212.296 39.5 211.5C40.485 209.814 41.626 209.048 43.5 208.5C44.9992 208.061 45.9735 208.168 47.5 208.5C50.7834 209.213 52.6847 213.646 53.6565 216.917M53.6565 216.917C54.2539 218.928 54.5 220.5 54.5 220.5C54.5 220.5 54.1564 219.118 53.6565 216.917ZM138 109.5C138 109.5 138.955 125.066 140 135C141.777 151.89 146.622 161.017 146.5 178C146.383 194.211 140 219 140 219C140 219 142.412 211.445 146.5 210C148.893 209.154 150.657 209.024 153 210C157.986 212.076 156 223.5 156 223.5L184.5 90C184.5 90 185.347 76.2459 184.5 67.5C183.695 59.1904 181.814 54.7443 180.5 46.5C178.12 31.5724 176.5 8 176.5 8L173.5 5.5L169.5 27L138 109.5Z" stroke="#AE3030"/>
</svg>
