<svg width="80" height="100" viewBox="0 0 80 100" fill="none" xmlns="http://www.w3.org/2000/svg">
<g id="Sternocleidomastoid outline">
<path d="M1 30.5V4.5L11.5 14L25 55L37 93C37 93 37.4324 94.9111 37 96C36.2581 97.8684 34.4614 98.0592 32.5 98.5C30.9759 98.8425 28.5 98.5 28.5 98.5L26 97C24.9521 95.7775 25 93 25 93C25 93 23.8802 87.1877 23 83.5C17.797 61.7023 1 30.5 1 30.5Z" stroke="#581818"/>
<path d="M59 54C54.5876 71.2963 43.5 97 43.5 97C43.5 97 45.194 98.6005 46.5 98.5C47.6352 98.4127 47.9677 97.4804 49 97C50.1197 96.479 51.002 96.7274 52 96C53.1379 95.1707 54 93 54 93L79.5 32V2.5C79.5 2.5 66.7942 23.2408 62.5 38C60.7132 44.1415 60.5811 47.8023 59 54Z" stroke="#581818"/>
</g>
</svg>
