<svg width="166" height="202" viewBox="0 0 200 202" fill="none" xmlns="http://www.w3.org/2000/svg">
<g id="Tibialis Anterior outline">
<path d="M131.5 164.5C128.241 176.128 128.5 177.5 124 194.5C119.5 211.5 119.5 189.5 119.5 189.5C119.5 189.5 119.113 174.255 119.5 164.5C120.154 148.017 123.017 138.967 124 122.5C125.246 101.644 124 89.8931 124 69V28.5C124 28.5 128.702 29.3654 131.5 28.5C134.19 27.6679 135.441 26.4212 137.5 24.5C142.097 20.2103 139.844 14.2258 144.5 10C147.605 7.18245 149.812 4.80715 154 5C159.248 5.24168 164 14 164 14C164 14 165.955 40.625 164 57.5C162.038 74.4373 158.578 83.5756 154 100C146.837 125.698 138.698 138.812 131.5 164.5Z" stroke="#AE3030"/>
<path d="M11 72.5C6.83084 46.2083 1.5 5 1.5 5L7 1.5C15.6602 -1.63595 18.7712 9.86236 27 14C30.826 15.9238 32.7176 18.5 37 18.5C41.2824 18.5 47 14 47 14V65C47 75.5442 46.8481 81.4569 47 92C47.5498 130.157 53.5 189.5 53.5 189.5C53.5 189.5 55 214.5 47 189.5C39 164.5 31.5 148.5 31.5 148.5C31.5 148.5 21.5352 126.102 17.5 111C13.5639 96.2688 13.3881 87.5598 11 72.5Z" stroke="#AE3030"/>
</g>
</svg>
