<svg width="187" height="45" viewBox="0 0 187 45" fill="none" xmlns="http://www.w3.org/2000/svg">
<path id="Trapezius outline" d="M122.5 9.5C122.5 9.5 133.918 16.957 139.5 23.5C140.945 25.1938 143 28 143 28C143 28 146.585 29.5068 149 29.5C152.087 29.4913 153.428 27.3111 156.5 27C159.632 26.6828 161.507 27.024 164.5 28C165.914 28.461 166.515 29.5873 168 29.5C169.308 29.4231 169.754 28.4055 171 28C173.599 27.1537 175.282 27.7051 178 28C179.676 28.1818 182.25 28.75 182.25 28.75M122.5 9.5L126.5 3L182.25 28.75M122.5 9.5L126.5 20.5L129.5 31.5L131.5 37C131.5 37 129.006 41.0343 126.5 42.5C123.591 44.202 121.361 43.7474 118 44C115.469 44.1902 113.862 44.9304 111.5 44C110.441 43.5827 109 42.5 109 42.5L122.5 9.5ZM182.25 28.75L186.5 29.5M45.5 1L2.5 25.5H8.5C8.5 25.5 14.4907 24.2964 18 25.5C19.9016 26.1522 20.9553 26.7133 22.5 28C23.8832 29.1522 25.5 31.5 25.5 31.5L43.5 12L45.5 6.5C45.5 6.5 42.7094 18.9117 42.5 27C42.4545 28.7568 42.5 31.5 42.5 31.5L54 37V19C54 19 52.3619 14.0461 51 11C49.1809 6.93121 45.5 1 45.5 1Z" stroke="#8A2626"/>
</svg>
