<svg width="216" height="204" viewBox="0 0 216 204" fill="none" xmlns="http://www.w3.org/2000/svg">
<g id="Vastus Lateralis outline">
<path d="M4.00001 7.49999C5.20234 5.80801 8.00001 3.99999 8.00001 3.99999C8.00001 3.99999 9.01603 2.54801 13.5 12.5C24.2549 36.3701 42 92.5 42 92.5L47 113.5L51.5 137C51.5 137 53.3795 143.03 51.5 146C50.3095 147.881 47 149.5 47 149.5C45.6534 151.505 45.8574 153.111 45.5 155.5C44.9511 159.169 44.956 161.33 45.5 165C46.6141 172.516 51.8886 175.202 54 182.5C55.16 186.51 56.3755 188.843 56 193C55.7443 195.832 54 200 54 200V200.5H52L49 195C47.6332 188.166 47.0546 184.294 45.5 177.5C41.3532 159.377 31.5 132 31.5 132L16 95L9.50001 71.5L6.00001 58.5L4.00001 43.5C4.00001 43.5 -1.77096 24.0304 2.00001 12.5C2.65372 10.5011 2.78182 9.21428 4.00001 7.49999Z" stroke="#AE3030"/>
<path d="M212 2.5C208.5 6.91414e-06 207.069 2.00012 207.069 2.00012C207.069 2.00012 204.984 5.62223 200.5 15.5742C189.745 39.4444 181.069 95.5743 181.069 95.5743L176.069 116.574L171.569 140.074C171.569 140.074 170 146.485 170 150C170 152 172.5 156 172.5 156C173.5 159 173.712 157.611 174.069 160C174.618 163.669 174.613 164.83 174.069 168.5C172.955 176.016 169.181 173.276 167.069 180.574C165.909 184.584 166.694 191.917 167.069 196.074C167.325 198.906 166.569 205.148 169.069 203.074C171.569 201 175.5 193.5 175.5 193.5C176.867 186.666 177.429 187.542 177.569 180.574C177.943 162 188 136.5 188 136.5L197.5 98.5002L204 74.0002L207.069 56.0001L209.5 43.5001C209.5 43.5001 211.5 36.6484 213.5 15.5742C215.5 -5.5 215.5 5 212 2.5Z" stroke="#AE3030"/>
</g>
</svg>
